Coordinates
version=1
nRows=5
nColumns=40
inDegrees=yes

Units are S.I. units (second, meters, Newtons, ...)
Angles are in degrees.

endheader
time	pelvis_tilt	pelvis_list	pelvis_rotation	pelvis_tx	pelvis_ty	pelvis_tz	hip_flexion_r	hip_adduction_r	hip_rotation_r	knee_angle_r	knee_angle_r_beta	ankle_angle_r	subtalar_angle_r	mtp_angle_r	hip_flexion_l	hip_adduction_l	hip_rotation_l	knee_angle_l	knee_angle_l_beta	ankle_angle_l	subtalar_angle_l	mtp_angle_l	lumbar_extension	lumbar_bending	lumbar_rotation	arm_flex_r	arm_add_r	arm_rot_r	elbow_flex_r	pro_sup_r	wrist_flex_r	wrist_dev_r	arm_flex_l	arm_add_l	arm_rot_l	elbow_flex_l	pro_sup_l	wrist_flex_l	wrist_dev_l
     57.35000000	     -7.64679115	     -5.34739574	      3.00493386	      1.08034376	      0.91422505	      0.47129918	     -0.47072291	     -1.03052661	    -16.06862924	     24.34266251	     24.34266251	     14.54868626	      5.06421616	    -13.23412239	     32.73611659	     -6.57781342	      0.33004302	     26.89589821	     26.89589821	      5.52363648	    -13.71706815	      8.52719098	     -9.34005227	      5.21011273	      4.93797780	     35.19490804	    -16.26099489	      1.88264370	    112.35040850	     44.25833362	      0.00000000	      0.00000000	    -15.53322666	     -8.36282165	     -0.84024925	     30.06574806	     45.73283734	      0.00000000	      0.00000000
     57.36171429	     -7.64921714	     -5.32456771	      2.90265475	      1.08148579	      0.91577293	      0.46831179	      0.47663586	     -1.68046136	    -15.50027622	     26.85838412	     26.85838412	     11.64181892	      2.99444240	    -18.52477093	     32.02816633	     -6.38973946	      0.39005364	     26.92289613	     26.92289613	      6.26219931	    -13.99781964	      8.88271844	     -9.35848269	      5.25075606	      4.75938366	     33.60598963	    -16.01260465	      1.67518411	    110.81267718	     44.35098735	      0.00000000	      0.00000000	    -15.31316112	     -8.36487186	     -1.09751610	     32.27338655	     45.78745430	      0.00000000	      0.00000000
     57.37342857	     -7.66076592	     -5.23126389	      2.77539540	      1.08251599	      0.91720181	      0.46541830	      1.84737513	     -2.54998454	    -15.02482290	     30.27538851	     30.27538851	     10.02239448	      1.84222434	    -19.36607487	     31.24990493	     -6.20593567	      0.17716927	     26.80204528	     26.80204528	      6.83072076	    -13.92073958	      8.65284849	     -9.36718439	      5.17857888	      4.76959433	     31.85493283	    -16.18809080	      1.79144271	    109.44857016	     44.38874581	      0.00000000	      0.00000000	    -14.38943694	     -8.31734866	     -1.16192078	     33.08819542	     45.81307575	      0.00000000	      0.00000000
     57.38514286	     -7.60970923	     -5.19810185	      2.66102392	      1.08339914	      0.91852265	      0.46264273	      3.32476519	     -3.29354232	    -14.39449685	     33.84430066	     33.84430066	      8.02380651	      0.18674263	    -20.25325479	     30.44963024	     -6.09550443	     -0.07350197	     26.72096699	     26.72096699	      7.37231763	    -13.88366173	      8.40399169	     -9.45737212	      5.25998645	      4.74977698	     30.02528699	    -16.20262189	      1.71212268	    107.75603253	     44.44204570	      0.00000000	      0.00000000	    -13.47672322	     -8.33158282	     -1.26457364	     34.25653027	     45.84354394	      0.00000000	      0.00000000
     57.39685714	     -7.54388813	     -5.28156695	      2.55727347	      1.08414859	      0.91962978	      0.46024634	      4.87968199	     -3.69946934	    -13.41491687	     37.25744016	     37.25744016	      4.79026194	     -2.97664806	    -23.29753294	     29.68296428	     -6.14309881	     -0.28245807	     26.67878543	     26.67878543	      7.83121340	    -13.68900377	      7.84001906	     -9.51438345	      5.36843646	      4.24948814	     28.66373096	    -15.52227168	      1.35063099	    104.72966556	     44.57942816	      0.00000000	      0.00000000	    -13.67085259	     -8.58149266	     -1.44707760	     38.01581083	     45.89621518	      0.00000000	      0.00000000
